<?xml version="1.0" encoding="utf-8"?>
<!-- Generator: Adobe Illustrator 26.2.1, SVG Export Plug-In . SVG Version: 6.00 Build 0)  -->
<svg version="1.1" id="Layer_1" xmlns="http://www.w3.org/2000/svg" xmlns:xlink="http://www.w3.org/1999/xlink" x="0px" y="0px"
	 viewBox="0 0 19.3989258 26.0050201" style="enable-background:new 0 0 19.3989258 26.0050201;" xml:space="preserve">
<style type="text/css">
	.st0{fill:#00FF00;}
	.st1{fill:#4F6077;}
</style>
<g id="Group_734" transform="translate(1648 6658.183)">
	<path id="Path_591" class="st1" d="M-1632.1990967-6658.1791992h0.7000732
		c0.8027344,0.1542969,1.5223389,0.5942383,2.0249023,1.2392578c0.3388672,0.6313477,0.6306152,1.2866211,0.8730469,1.9609375
		v0.6000977c-0.1730957,0.8334961-0.5554199,1.6088867-1.111084,2.2539062
		c-1.7832031,2.2416992-3.5546875,4.4936523-5.3139648,6.7548828c-0.5339355,0.684082-0.5999756,0.5219727,0.0610352,1.2460938
		c1.6459961,1.8120117,3.2768555,3.6391602,4.9538574,5.4228516c0.7102051,0.6826172,1.2010498,1.5605469,1.4100342,2.5229492
		v0.7001953c-0.0960693,0.3842773-0.2131348,0.7631836-0.3509521,1.1347656
		c-0.501709,1.1313477-1.5300293,1.9418945-2.7470703,2.1650391h-0.5999756
		c-2.7205811-3.1010742-5.442749-6.2011719-8.1660156-9.2998047c-0.5494385-0.5605469-0.9530029-1.2470703-1.1749268-2
		c-0.0366211-0.0712891-0.0808105-0.1386719-0.1320801-0.2001953c0,2.7631836,0.0050049,5.425293,0,8.0869141
		c0.0317383,1.1938477-0.595459,2.3081055-1.6320801,2.9003906c-0.3813477,0.199707-0.7770996,0.3706055-1.18396,0.5117188
		h-3.2999268c0-4.7792969,0.0026855-9.5581055,0.0079346-14.3369141c-0.0065918-0.3344727,0.012085-0.668457,0.0560303-1
		c0.2390137-1.6625977,1.7805176-2.8164062,3.4428711-2.5771484c1.4958496,0.215332,2.6066895,1.4960938,2.6081543,3.0073242
		c0.0090332,0.5737305,0,1.1479492,0,1.6230469c0.3500977-0.6484375,0.7368164-1.2758789,1.157959-1.8803711
		c2.2709961-2.9360352,4.5771484-5.8447266,6.8630371-8.769043c0.5310059-0.6787109,1.0360107-1.3798828,1.552002-2.0708008"/>
	<path id="Path_592" class="st1" d="M-1643.8370361-6658.1791992c1.3780518,0.2617188,2.4818115,1.2939453,2.835083,2.6513672
		c0.473877,1.8959961-0.6791992,3.8173828-2.5753174,4.2915039c-1.7318115,0.4326172-3.5147705-0.4921875-4.1588135-2.1567383
		c-0.0998535-0.2768555-0.177002-0.565918-0.263916-0.8491211v-0.7890625
		c0.2457275-1.5859375,1.4616699-2.8466797,3.0380859-3.1499023L-1643.8370361-6658.1791992z"/>
</g>
</svg>
