<?xml version="1.0" encoding="utf-8"?>
<!-- Generator: Adobe Illustrator 26.2.1, SVG Export Plug-In . SVG Version: 6.00 Build 0)  -->
<svg version="1.1" id="Layer_1" xmlns="http://www.w3.org/2000/svg" xmlns:xlink="http://www.w3.org/1999/xlink" x="0px" y="0px"
	 viewBox="0 0 24.9959984 25.0034466" style="enable-background:new 0 0 24.9959984 25.0034466;" xml:space="preserve">
<style type="text/css">
	.st0{fill:#00FF00;}
	.st1{fill:#4F6077;}
</style>
<path id="Path_593" class="st1" d="M22.7960014,25.0034466H2.1790042c-0.0570984-0.0274658-0.117157-0.0482788-0.1790009-0.0620117
	c-0.7271729-0.0665283-1.3710022-0.4972534-1.7099991-1.1439819c-0.2031784-0.3822632-0.3018341-0.8114014-0.2860031-1.2440186
	c-0.0090027-1.5230103,0-3.0449829,0-4.5679932c0-5.1706533,0-10.3413086,0-15.512023
	c-0.025795-0.5567018,0.1365967-1.1058961,0.4609985-1.5590211c0.4766312-0.6168823,1.2278748-0.9577026,2.0059967-0.9099731
	c6.5206685,0,13.0416641,0,19.5630035,0c0.3079987,0,0.6169968,0.0200195,0.9240036,0.0410156
	c0.9718246,0.0889893,1.7699509,0.8054199,1.9629974,1.7620239c0.0279999,0.1240234,0.0500031,0.2490236,0.0749969,0.372986
	v20.6229858c-0.0280762,0.064209-0.049202,0.1312866-0.0630035,0.2000122
	c-0.1153183,0.9619751-0.837326,1.7401123-1.788002,1.927002c-0.1169968,0.0180054-0.2320023,0.0460205-0.3470001,0.0700073
	 M13.7289925,10.6004324c0-0.223999,0-0.4760132,0-0.7280273c0.0412521-0.359375-0.2166519-0.6841431-0.5760422-0.7254028
	c-0.047821-0.0054932-0.0960999-0.0056763-0.143959-0.0006104c-0.9033356,0-1.8069992,0-2.7109985,0
	C9.9291191,9.0964041,9.5895882,9.354949,9.5396156,9.7237844c-0.0085754,0.0632935-0.00811,0.1274414,0.0013733,0.1906128
	c0,3.859314,0,7.718688,0,11.578002c-0.0539017,0.3794556,0.2100296,0.7307739,0.5895004,0.784729
	c0.0615005,0.008728,0.1238861,0.0091553,0.1855011,0.0012817c0.8793335,0,1.7583313,0,2.637001,0
	c0.3737411,0.0549927,0.721283-0.2034302,0.7762604-0.5771484c0.0097961-0.0666504,0.0097122-0.1342773-0.0002594-0.2008667
	c-0.0000076-1.9700317-0.0000076-3.9403687,0-5.9110098c-0.003891-0.644043,0.1401367-1.2803955,0.4209976-1.8599854
	c0.3569717-0.8000488,1.1930847-1.2746582,2.0630035-1.1710205c0.8586884,0.0247803,1.5801849,0.6528931,1.7229996,1.5
	c0.124588,0.6033936,0.1875839,1.2178955,0.1880035,1.8339844c0.0230026,1.8800039,0.0080032,3.7609854,0.0090027,5.6420279
	c-0.0495071,0.361145,0.2031097,0.6940308,0.5642395,0.7435303c0.0629959,0.008606,0.1269073,0.0081177,0.1897583-0.0015259
	c0.9119949,0,1.8236618,0,2.7350006,0c0.3826141,0.0553589,0.7376709-0.2098999,0.7930374-0.5925293
	c0.009964-0.0688477,0.009613-0.1387329-0.0010376-0.2074585c-0.0100021-2.3530273-0.0110016-4.7050171-0.0469971-7.0579824
	c-0.0002823-0.9612427-0.1779251-1.9141846-0.5240021-2.8109741c-0.4087906-1.164978-1.3473434-2.06604-2.5279999-2.427002
	c-0.7830124-0.2262573-1.6024628-0.298584-2.413002-0.2130127c-0.7690506,0.026123-1.5144958,0.2722168-2.1480026,0.7089844
	c-0.3669968,0.2750244-0.685997,0.6119995-1.0240021,0.9190063 M3.577991,15.6954031
	c-0.0000076,1.9133291-0.0000076,3.8266592,0,5.7399893c0,0.5780029,0.2559967,0.8389893,0.8259964,0.8400269
	c0.8386688,0,1.677002,0,2.5149994,0c0.4047012,0.060791,0.7820663-0.2179565,0.842865-0.6226807
	c0.0105743-0.0703735,0.0109558-0.1418457,0.0011368-0.2123413c0-0.5859985,0-1.1719971,0-1.7589722
	c-0.0000076-3.223999-0.0000076-6.4483023,0-9.6729727c0-0.6110229-0.2529984-0.8660278-0.8529968-0.8660278H4.3699908
	C3.9912524,9.0835867,3.6365085,9.342864,3.5776477,9.7216482C3.5668979,9.790801,3.5666766,9.8611746,3.5769916,9.9304495
	c0,1.9213257,0,3.8430176,0,5.7650146 M8.3549919,5.404448C8.3544197,3.9165943,7.1478076,2.7109058,5.6599536,2.7115161
	c-1.487854,0.0005493-2.6935349,1.2071533-2.6929626,2.6950071c0.0005722,1.4823608,1.1986389,2.6857915,2.6809998,2.6929326
	C7.1391559,8.103301,8.3511162,6.8976121,8.3549843,5.4064622C8.3549919,5.4057908,8.3549919,5.4051194,8.3549919,5.404448"/>
</svg>
