<?xml version="1.0" encoding="utf-8"?>
<!-- Generator: Adobe Illustrator 26.2.1, SVG Export Plug-In . SVG Version: 6.00 Build 0)  -->
<svg version="1.1" id="Layer_1" xmlns="http://www.w3.org/2000/svg" xmlns:xlink="http://www.w3.org/1999/xlink" x="0px" y="0px"
	 viewBox="0 0 16.00597 24.118784" style="enable-background:new 0 0 16.00597 24.118784;" xml:space="preserve">
<style type="text/css">
	.st0{fill:#00FF00;}
	.st1{fill:#4F6077;}
</style>
<path id="Path_1_00000043449577240538751240000004797839089223025571_" d="M16.00597,6.6568441v1.5006809
	c-0.0021458,3.6749544-2.9818878,6.6529551-6.6568422,6.6529551H3.6720052
	c-0.1706977-0.0005369-0.3095129,0.1374063-0.3100486,0.3081045c-0.0000019,0.0003242-0.0000019,0.0006485-0.0000019,0.0009737
	v8.6891766c0.0000019,0.1708565-0.138222,0.309515-0.3090787,0.3100491H0.3100503C0.1388152,24.118784,0,23.9799709,0,23.8087349
	l0,0V0.3090798C0,0.1383805,0.1383777,0.0000009,0.309077,0c0.0003244,0,0.0006488,0.0000009,0.0009733,0.0000019h9.0390778
	C13.0255995,0.0000019,16.00597,2.980372,16.00597,6.6568441 M7.977716,3.3619547H3.6525657
	C3.4915285,3.3619552,3.3609834,3.4925015,3.3609834,3.653538v4.3251495
	c0.0027771,0.1610136,0.1355562,0.2892885,0.2965691,0.2865105c0.0741239-0.0012789,0.1449773-0.0307436,0.1981511-0.0824022
	l4.3251486-4.3241773c0.1122055-0.1155121,0.1095228-0.300113-0.0059881-0.4123173
	C8.1214552,3.3944211,8.0502214,3.364939,7.9757714,3.363899 M12.6411009,6.6587882
	c0.0003452-0.5539598-0.140481-1.0988703-0.4091883-1.5832963c-0.0822334-0.1384573-0.2611399-0.1840363-0.3995972-0.1018023
	c-0.0204515,0.0121469-0.03934,0.026751-0.0562449,0.0434861l-5.9395475,5.9395475
	c-0.1122127,0.1155043-0.1095452,0.3001051,0.0059581,0.4123182c0.0531735,0.0516577,0.1240253,0.0811224,0.1981492,0.0824013
	h3.3046083c1.8197174,0,3.2948895-1.475172,3.2948895-3.2948895l0,0L12.6411009,6.6587882z"/>
</svg>
