<?xml version="1.0" encoding="utf-8"?>
<!-- Generator: Adobe Illustrator 26.2.1, SVG Export Plug-In . SVG Version: 6.00 Build 0)  -->
<svg version="1.1" id="Layer_1" xmlns="http://www.w3.org/2000/svg" xmlns:xlink="http://www.w3.org/1999/xlink" x="0px" y="0px"
	 viewBox="0 0 27.986618 27.9997215" style="enable-background:new 0 0 27.986618 27.9997215;" xml:space="preserve">
<style type="text/css">
	.st0{fill:#00FF00;}
	.st1{fill:#4F6077;}
</style>
<g id="Group_733" transform="translate(1573 6658.183)">
	<path id="Path_594" class="st1" d="M-1565.8353271-6658.1831055h13.6629639
		c0.2860107,0.0458984,0.5749512,0.0761719,0.8569336,0.1391602c2.993042,0.5390625,5.3795166,2.8046875,6.072998,5.765625
		c0.1130371,0.4082031,0.1540527,0.8364258,0.2290039,1.2553711v13.6640625
		c-0.0169678,0.0996094-0.0279541,0.199707-0.0529785,0.2919922c-0.1323242,0.7407227-0.3294678,1.4682617-0.5889893,2.1748047
		c-1.1669922,2.8891602-4.0020752,4.7524414-7.1169434,4.6782227c-4.1530762,0.0576172-8.3070068,0.0166016-12.4610596,0.0117188
		c-1.5791016,0.0224609-3.1245117-0.4580078-4.4129639-1.3710938c-2.1519775-1.453125-3.4139404-3.9038086-3.3470459-6.5
		c-0.0100098-4.0800781-0.008667-8.1601562,0.0040283-12.2407227c-0.0081787-0.5268555,0.0394287-1.0527344,0.1419678-1.5693359
		c0.5310059-2.9916992,2.7945557-5.3793945,5.7540283-6.0688477
		C-1566.6843262-6658.065918-1566.2553711-6658.1069336-1565.8353271-6658.1831055 M-1547.4934082-6644.1831055
		c0-2.0219727,0-4.043457,0-6.0649414c0.0150146-0.6381836-0.0797119-1.2739258-0.2800293-1.8798828
		c-0.7335205-2.1914062-2.8164062-3.6425781-5.1259766-3.5722656c-4.0709229,0-8.1419678-0.0126953-12.2130127,0.0112305
		c-0.6177979-0.0024414-1.2322998,0.0917969-1.8209229,0.2797852c-2.2003174,0.7119141-3.661499,2.796875-3.5800781,5.1079102
		c-0.0059814,4.0708008-0.0059814,8.1416016,0,12.2133789c-0.0126953,0.6289062,0.0837402,1.2553711,0.2850342,1.8515625
		c0.730835,2.1704102,2.7907715,3.6113281,5.0799561,3.5532227c4.0980225,0.0107422,8.1964111,0.0107422,12.2950439,0
		c1.7490234,0.0493164,3.4044189-0.7890625,4.4000244-2.2280273c0.657959-0.9282227,0.9962158-2.0454102,0.9639893-3.1831055
		c0-2.0307617,0-4.0615234,0-6.0927734"/>
	<path id="Path_595" class="st1" d="M-1551.7923584-6644.1928711c0.0015869,3.9824219-3.2254639,7.2119141-7.2080078,7.2138672
		c-3.9825439,0.0014648-7.2124023-3.2255859-7.2139893-7.2080078c-0.001709-3.9799805,3.2211914-7.2084961,7.2009277-7.2138672
		C-1555.0351562-6651.3896484-1551.8110352-6648.1713867-1551.7923584-6644.1928711 M-1554.2803955-6644.1928711
		c-0.0010986-2.609375-2.1169434-4.7231445-4.7259521-4.722168s-4.7231445,2.1171875-4.7220459,4.7260742
		s2.1170654,4.7231445,4.7259521,4.7216797c0.0003662,0,0.0007324,0,0.0010986,0
		C-1556.3939209-6639.4716797-1554.2819824-6641.5854492-1554.2803955-6644.1928711"/>
	<path id="Path_596" class="st1" d="M-1551.4504395-6653.4960938c1.0003662,0.0273438,1.7893066,0.8603516,1.762207,1.8603516
		c-0.0272217,1.0004883-0.8602295,1.7895508-1.8605957,1.762207c-0.9918213-0.0268555-1.7774658-0.8466797-1.7625732-1.8383789
		C-1553.2900391-6652.71875-1552.4569092-6653.5170898-1551.4504395-6653.4960938"/>
</g>
</svg>
