<?xml version="1.0" encoding="utf-8"?>
<!-- Generator: Adobe Illustrator 26.2.1, SVG Export Plug-In . SVG Version: 6.00 Build 0)  -->
<svg version="1.1" id="Layer_1" xmlns="http://www.w3.org/2000/svg" xmlns:xlink="http://www.w3.org/1999/xlink" x="0px" y="0px"
	 viewBox="0 0 144.6291199 25" style="enable-background:new 0 0 144.6291199 25;" xml:space="preserve">
<style type="text/css">
	.st0{fill:#00FF00;}
	.st1{fill:#4F6077;}
</style>
<g id="Group_2" transform="translate(52)">
	<g id="Group_1" transform="translate(0 0)">
		<path id="Path_1" d="M-35.99403,7.1117125v1.5006809c-0.0021477,3.6749544-2.9818878,6.6529551-6.6568413,6.6529551h-5.677124
			c-0.1706963-0.0005379-0.3095131,0.1374063-0.3100471,0.3081036c-0.0000038,0.0003252-0.0000038,0.0006495-0.0000038,0.0009737
			v8.6891775c0.0000038,0.1708565-0.1382217,0.309515-0.3090782,0.3100491h-2.7428246
			c-0.1712341,0-0.310051-0.138813-0.310051-0.3100491l0,0V0.763948c0-0.1706994,0.1383781-0.3090789,0.3090782-0.3090798
			c0.0003242,0,0.0006485,0.0000009,0.0009727,0.0000018h9.0390778C-38.9743996,0.45487-35.99403,3.43524-35.99403,7.1117125
			 M-44.0222855,3.816823h-4.3251495c-0.1610374,0.0000005-0.2915802,0.1305466-0.2915802,0.2915831v4.3251495
			c0.0027771,0.1610126,0.1355553,0.2892876,0.296566,0.2865105c0.0741272-0.0012789,0.1449776-0.0307436,0.1981544-0.0824022
			l4.3251457-4.3241773c0.1122055-0.1155124,0.1095238-0.3001132-0.0059853-0.4123173
			c-0.0534096-0.0518801-0.1246452-0.081362-0.1990929-0.082402 M-39.3588982,7.113656
			c0.0003433-0.5539598-0.1404839-1.0988703-0.4091911-1.5832958c-0.0822334-0.1384573-0.2611389-0.1840363-0.3995934-0.1018023
			c-0.0204544,0.0121465-0.039341,0.0267506-0.0562477,0.0434856l-5.9395485,5.939548
			c-0.1122093,0.1155043-0.1095428,0.3001051,0.0059586,0.4123182c0.0531769,0.0516577,0.1240273,0.0811224,0.1981506,0.0824013
			h3.3046074c1.8197174,0,3.2948914-1.475172,3.2948914-3.2948895l0,0L-39.3588982,7.113656z M22.2944069,19.1988049
			c0-1.272274,0.0058308-3.9208212-4.8811016-8.1040678c-3.7079639-3.1743674-3.7050495-4.7712708-3.7040777-5.5488257
			c-0.0289869-1.1768227,0.901516-2.1543248,2.0783386-2.1833124c0.016736-0.0004125,0.0334797-0.0006275,0.0502205-0.0006452
			h0.9719439c1.1746521,0.0005369,2.1266117,0.9529319,2.1266117,2.1275849v1.6824346
			c0,0.1610365,0.1305466,0.2915826,0.2915821,0.2915831h2.781702c0.1610355-0.0000005,0.291584-0.1305466,0.291584-0.2915831
			V5.4885664C22.3012104,2.4573154,19.843895,0,16.812645,0c-0.0009727,0-0.0019436,0-0.0029144,0.0000009h-0.9719439
			c-3.0355444,0.0041989-5.4929333,2.4683959-5.4887362,5.5039387c0.0000181,0.0120468,0.0000734,0.0240936,0.0001698,0.0361404
			c-0.3110247,6.2262707,8.6532116,9.0944767,8.5832329,13.6538649c0.0305996,1.329813-1.0226192,2.4326458-2.3524323,2.4632454
			c-0.016737,0.0003853-0.0334721,0.0005951-0.0502129,0.0006313h-0.4189072
			c-1.3269463,0.0000019-2.4026489-1.075695-2.4026489-2.4026394c0-0.0016212,0-0.0032425,0.0000038-0.0048637v-2.0410824
			c0-0.1610374-0.1305475-0.291584-0.2915821-0.291584h-2.7807312c-0.1610355,0-0.2915821,0.1305466-0.2915821,0.291584v2.0410824
			c0.1258421,3.2988567,2.9021053,5.8710938,6.200964,5.7452545c3.1440468-0.119936,5.6568756-2.6565895,5.747139-5.8016281
			 M66.924118,0.597747h11.1773529c0.161026,0.0015785,0.2902832,0.1333983,0.2887039,0.294427
			c-0.0004807,0.0494595-0.0135345,0.0979818-0.037941,0.1410037L64.7712631,24.2849846
			c-0.0825882,0.1382446-0.2616119,0.1833591-0.3998566,0.1007652c-0.043045-0.0257149-0.0787277-0.0620937-0.1036072-0.1056232
			L51.3078957,1.0331768c-0.0767708-0.1415616-0.0242424-0.318552,0.1173172-0.3953193
			c0.0418892-0.0227169,0.0887108-0.0348197,0.1363602-0.0352516h11.5291977
			c0.1610222,0.0021115,0.2898445,0.1343586,0.2877388,0.2953818c-0.0006485,0.0491341-0.0136986,0.0973088-0.0379448,0.140049
			l-1.627037,2.7826748c-0.0522652,0.088928-0.1476173,0.1436274-0.2507668,0.1438475h-4.1793594
			c-0.1610336,0.0014584-0.2903938,0.1331818-0.2889328,0.2942121c0.0004311,0.0476503,0.0125389,0.0944691,0.0352516,0.1363587
			c1.0079155,1.8048997,2.4152908,4.3309817,3.4202843,6.1387963c0.0800934,0.1397085,0.2582741,0.1880369,0.3979797,0.1079454
			c0.042942-0.0246153,0.078907-0.0597572,0.1045113-0.1021137c1.4238968-2.4366627,4.4806633-7.6686354,5.7208672-9.7942753
			c0.0522614-0.0889276,0.1476135-0.1436278,0.2507629-0.1438475 M62.6854706,14.5315304l1.6523056,2.9692879
			c0.0796356,0.1399708,0.2576599,0.1888809,0.3976288,0.1092472c0.0435867-0.0247974,0.08004-0.0604153,0.105835-0.1034145
			l7.6511459-13.10569c0.0799866-0.1397676,0.0315247-0.3179135-0.1082382-0.3979001
			c-0.0434189-0.0248475-0.0924988-0.0381067-0.1425247-0.0385025h-3.3852844
			c-0.1031494,0.0002201-0.1985016,0.0549195-0.2507629,0.1438472l-5.920105,10.1364012
			c-0.0520859,0.0902166-0.0520859,0.2013674,0,0.2915831 M48.2686272,0.45487H36.2865105
			c-0.1610374-0.0000018-0.291584,0.1305434-0.291584,0.2915805v0.0000028v23.5404758
			c0,0.1610374,0.1305466,0.291584,0.291584,0.291584l0,0h11.9821167c0.1610413,0.0000019,0.2915878-0.1305447,0.2915878-0.2915802
			v-0.0000038v-2.7826748c0-0.1610374-0.1305466-0.291584-0.2915878-0.291584l0,0h-8.6182213
			c-0.1610374,0.0000019-0.291584-0.1305428-0.291584-0.2915802v-0.0000019V4.1064634
			c0-0.1610372,0.1305466-0.2915833,0.291584-0.2915833l0,0h8.6192017c0.1610374,0.0000019,0.2915878-0.1305435,0.2915878-0.29158
			V3.5232968V0.7445096c0-0.1610371-0.1305504-0.2915833-0.2915878-0.2915833l0,0 M48.5582733,10.6972132V6.8512321
			c-0.0040436-0.1609864-0.1378136-0.2882185-0.2988014-0.2841802C48.1902428,6.5687881,48.1238976,6.5951052,48.0723,6.6412921
			l-6.8210983,6.5120225c-0.0570908,0.0549269-0.0893707,0.1307182-0.0894203,0.20994v3.8459816
			c0.0040398,0.1609859,0.1378136,0.2882175,0.2988014,0.2841797c0.0692291-0.0017357,0.1355743-0.0280533,0.1871681-0.0742397
			l6.8210983-6.512023C48.5259399,10.8522263,48.5582199,10.7764349,48.5582733,10.6972132 M92.337532,0.45487H80.3563766
			c-0.1610336-0.0000018-0.2915878,0.1305434-0.2915878,0.2915805v0.0000028v23.5404758
			c0,0.1610374,0.1305542,0.291584,0.2915878,0.291584l0,0H92.337532c0.1610413,0.0000019,0.2915878-0.1305447,0.2915878-0.2915802
			v-0.0000038v-2.7826748c0-0.1610374-0.1305466-0.291584-0.2915878-0.291584l0,0h-8.6192017
			c-0.1610413,0.0000019-0.2915878-0.1305428-0.2915878-0.2915802v-0.0000019V4.1064634
			c0-0.1610372,0.1305466-0.2915833,0.2915878-0.2915833l0,0h8.6192017c0.1610413,0.0000019,0.2915878-0.1305435,0.2915878-0.29158
			V3.5232968V0.7445096c0-0.1610371-0.1305466-0.2915833-0.2915878-0.2915833l0,0 M92.6291199,10.6952696V6.8512321
			c-0.0040436-0.1609864-0.1378174-0.2882185-0.2988052-0.2841802c-0.0692291,0.0017362-0.1355743,0.0280533-0.1871719,0.0742402
			l-6.8210983,6.5120225c-0.0574417,0.0547619-0.0900879,0.1305742-0.0903931,0.20994v3.8459816
			c0.0040436,0.1609859,0.1378174,0.2882175,0.2988052,0.2841797c0.0692291-0.0017357,0.1355743-0.0280533,0.1871719-0.0742397
			l6.8210983-6.512023c0.0570908-0.0549269,0.0893707-0.1307182,0.0894165-0.20994 M-27.2999935,0.45487h-3.0713425
			c-0.1610355,0-0.2915821,0.1305462-0.2915821,0.2915833l0,0v23.5404758c0,0.1610374,0.1305466,0.291584,0.2915821,0.291584l0,0
			h11.9811516c0.1610374,0,0.2915821-0.1305466,0.2915821-0.291584l0,0v-2.7826748
			c0-0.1610374-0.1305447-0.291584-0.2915821-0.291584l0,0h-8.6201687c-0.1610374,0-0.291584-0.1305447-0.291584-0.2915821l0,0
			V4.1064634c0-0.1610372,0.1305466-0.2915833,0.291584-0.2915833l0,0h8.6201687
			c0.1610374,0,0.2915821-0.1305461,0.2915821-0.2915828V3.5232968V0.7445096c0-0.1610371-0.1305447-0.2915833-0.2915821-0.2915833
			l0,0L-27.2999935,0.45487z M-25.0120373,17.4162598l6.822073-6.5100794
			c0.0568466-0.0546923,0.0891075-0.130084,0.0894184-0.2089672V6.8512321
			c-0.0040379-0.1609864-0.1378155-0.2882185-0.2988033-0.2841802c-0.0692253,0.0017362-0.1355724,0.0280533-0.1871681,0.0742402
			l-6.8211002,6.5120225c-0.0570889,0.0549269-0.0893707,0.1307182-0.0894203,0.20994v3.8459816
			c0.0040379,0.1609859,0.1378174,0.2882175,0.2988033,0.2841797c0.0692272-0.0017357,0.1355743-0.0280533,0.18717-0.0742397
			 M1.1789305,0.45487H3.960633c0.1610372,0,0.2915823,0.1305462,0.2915823,0.2915833v23.5404758
			c0,0.1610374-0.1305451,0.291584-0.2915823,0.291584H1.0088392c-0.076632-0.0005817-0.1499549-0.0313072-0.2041073-0.0855312
			l-8.7018127-8.7027855c-0.1155038-0.1122131-0.3001046-0.1095457-0.4123168,0.0059576
			c-0.0516596,0.0531731-0.0811243,0.1240263-0.0824032,0.1981506v8.2916517c0,0.1610374-0.1305456,0.291584-0.2915831,0.291584
			h-2.7797585c-0.1610365,0-0.2915831-0.1305466-0.2915831-0.291584l0,0V0.7445096
			c0-0.1610371,0.1305466-0.2915833,0.2915831-0.2915833l0,0h2.9508219c0.0768299,0.0000667,0.1505308,0.0304548,0.20508,0.084559
			l8.7018118,8.7018118C0.5100741,9.351511,0.6946753,9.3488436,0.806888,9.2333403
			C0.858547,9.1801672,0.8880118,9.109313,0.889291,9.0351896V0.7445096c0-0.1610371,0.1305452-0.2915833,0.2915823-0.2915833
			 M-8.3072405,10.6243172l8.7018127,8.7018127c0.1155107,0.1122055,0.3001119,0.1095238,0.4123171-0.0059872
			c0.0518814-0.0534096,0.081363-0.1246414,0.082403-0.1990948v-4.5098181
			c-0.0003226-0.0764933-0.0306903-0.1497974-0.084559-0.2041082l-8.7018147-8.7018118
			c-0.1155105-0.112205-0.3001122-0.1095252-0.4123168,0.0059867c-0.0518818,0.0534086-0.0813637,0.1246419-0.0824032,0.1990933
			v4.509819c0.0003223,0.0764933,0.0306902,0.1497974,0.0845585,0.2041082 M30.5141354,0.45487h-2.7817039
			c-0.1610336,0-0.2915821,0.1305462-0.2915821,0.2915833v5.7412715c0.0040379,0.1609864,0.1378193,0.288218,0.2988014,0.2841802
			c0.0692272-0.0017362,0.1355743-0.0280533,0.1871719-0.0742402l2.7826729-2.6553507
			c0.0570869-0.0549271,0.0893688-0.1307185,0.0894184-0.2099397V0.7445096c0-0.1610371-0.1305485-0.2915833-0.2915821-0.2915833
			 M27.4427929,10.7545576v13.5313997c0,0.1610374,0.1305466,0.291584,0.2915821,0.291584h2.7797604
			c0.1610355,0,0.2915821-0.1305466,0.2915821-0.291584V8.1001797c-0.0040379-0.1609864-0.1378174-0.2882185-0.2988014-0.2841806
			c-0.0692253,0.0017366-0.1355743,0.0280538-0.18717,0.0742407l-2.7875347,2.6543779
			C27.4751244,10.5995445,27.4428406,10.6753359,27.4427929,10.7545576"/>
	</g>
</g>
</svg>
